<?xml version="1.0" encoding="UTF-8"?><svg id="Layer_2" xmlns="http://www.w3.org/2000/svg" viewBox="0 0 271.4 291.39"><defs><style>.cls-1{fill:#293241;}.cls-2{fill:#f6f6f6;}.cls-3{fill:#97c1d8;}.cls-4{fill:#ed6c4e;}</style></defs><g id="Calque_1"><g><circle class="cls-2" cx="135.88" cy="157.56" r="133.83"/><path class="cls-1" d="M203.26,131.03c-.1-.38-.19-.77-.31-1.15-6.83-22.16-15.76-42.13-41.31-48.94-29.18-7.78-56.36-4.65-81.75,11.96-16.62,10.87-26.05,27.35-33.88,44.78-13.44,29.91-21.19,61.14-19.71,94.43-4.76-.45-5.36-4.58-6.88-7.37C-8.11,174.18-6.98,124.02,26.7,77.38,60.44,30.66,108.34,12.55,164.43,24.61c55.63,11.96,90.66,48.28,103.67,103.73,14.95,63.74-22.21,130.88-83.62,154.31-5.8,2.21-9.54,2.25-14.22-2.99-9.98-11.2-21.08-21.41-31.71-32.04-11.71-11.72-18.76-25.36-17.13-42.45,1.46-15.27,11.39-25.5,26.68-26.92,11.81-1.09,23.68-1.61,35.52-2.37,16.59,.11,32.55,4.14,48.58,7.84,4.99,1.15,11.44,2.35,14.19-2.43,3.2-5.57-3.19-8.94-6.59-12.25-12.61-12.26-26.94-22.84-36.54-37.99Z"/><path class="cls-4" d="M203.26,131.03c9.6,15.16,23.93,25.73,36.54,37.99,3.4,3.31,9.79,6.68,6.59,12.25-2.75,4.78-9.2,3.58-14.19,2.43-16.03-3.7-31.98-7.73-48.58-7.84-3.41-2.43-3.82-3.33-4.75-10.53-.03-.24,.15-.63,.04-.72-2.41-1.97-9.91,1.77-7.2-5.31,1.09-2.86,6.99-3.53,9.66-6.22,4.94-4.98,.95-10.57-.71-15.48-2.64-7.83-.87-10.35,7.38-8.52,4.97,1.11,10.14,1.32,15.22,1.93Z"/><path class="cls-1" d="M147.72,119.5c-1.03,5.03-3.85,7.78-8.96,7.25-4.6-.48-7.18-3.73-6.82-7.93,.41-4.72,3.62-7.8,8.81-7.19,4.52,.53,6.49,3.72,6.97,7.86Z"/><g><path class="cls-3" d="M11.24,77.59c-6.3-16.19,2.91-33.62,19.99-37.42,3.08-.69,4.45-1.86,5.39-4.96C46.03,4.35,80.57-9.28,108.54,6.8c2.83,1.63,4.7,1.89,7.67,.14,13.21-7.79,29.73-3.59,37.72,9.23,8.06,12.94,4.6,29.37-7.94,38.16-2.04,1.43-3.8,1.68-6.25,.87-36.94-7.45-72.77,3.72-93.1,36.45-1.27,2.29-2.78,3.23-5.21,3.56-13.23,1.78-25.37-5.26-30.18-17.62Z"/><path class="cls-3" d="M51.94,112.31c-1.7-4.36-3.41-8.41-4.83-12.56-.35-1.01-.06-2.48,.44-3.5,19.67-31.79,58.36-44.76,94.33-37.13,1.23,.47,2.51,1.69,3.06,2.88,1.72,3.77,3.1,7.7,4.75,11.9-42.35-6.41-71.36,1.92-97.74,38.41Z"/></g></g></g></svg>