<?xml version="1.0" encoding="UTF-8"?><svg id="Layer_2" xmlns="http://www.w3.org/2000/svg" viewBox="0 0 566.63 191.68"><defs><style>.cls-1{fill:#ededed;font-family:Alkaline-Medium, Alkaline;font-size:79.63px;}.cls-2{fill:#293241;}.cls-3{letter-spacing:.55em;}.cls-4{fill:#f6f6f6;}.cls-5{letter-spacing:.53em;}.cls-6{fill:#97c1d8;}.cls-7{fill:#ed6c4e;}.cls-8{fill:#e2f2f6;}</style></defs><g id="Calque_1"><g><g><circle class="cls-4" cx="286.43" cy="103.64" r="88.04"/><path class="cls-6" d="M330.76,86.19c-.07-.25-.13-.51-.2-.75-4.49-14.58-10.37-27.71-27.18-32.19-19.19-5.12-37.08-3.06-53.78,7.87-10.93,7.15-17.13,17.99-22.28,29.46-8.84,19.68-13.94,40.22-12.96,62.12-3.13-.3-3.52-3.01-4.52-4.85-18.11-33.27-17.37-66.26,4.79-96.94,22.19-30.73,53.7-42.65,90.6-34.71,36.59,7.87,59.64,31.76,68.19,68.24,9.83,41.93-14.61,86.09-55.01,101.5-3.82,1.46-6.28,1.48-9.35-1.97-6.57-7.37-13.87-14.08-20.86-21.08-7.71-7.71-12.34-16.68-11.27-27.93,.96-10.04,7.49-16.78,17.55-17.71,7.77-.72,15.58-1.06,23.36-1.56,10.92,.07,21.41,2.72,31.95,5.15,3.28,.76,7.52,1.55,9.33-1.6,2.11-3.66-2.1-5.88-4.33-8.06-8.29-8.07-17.72-15.02-24.04-24.99Z"/><path class="cls-7" d="M330.76,86.19c6.31,9.97,15.74,16.93,24.04,24.99,2.24,2.17,6.44,4.39,4.33,8.06-1.81,3.15-6.05,2.36-9.33,1.6-10.54-2.43-21.04-5.08-31.95-5.15-2.24-1.6-2.51-2.19-3.12-6.92-.02-.16,.1-.42,.03-.47-1.59-1.29-6.52,1.17-4.73-3.49,.72-1.88,4.6-2.32,6.35-4.09,3.25-3.28,.63-6.95-.46-10.18-1.74-5.15-.57-6.81,4.85-5.6,3.27,.73,6.67,.87,10.01,1.27Z"/><path class="cls-2" d="M294.22,78.61c-.68,3.31-2.53,5.12-5.9,4.77-3.03-.31-4.72-2.46-4.48-5.22,.27-3.11,2.38-5.13,5.8-4.73,2.98,.35,4.27,2.45,4.59,5.17Z"/><g><path class="cls-8" d="M204.45,51.04c-4.14-10.65,1.91-22.12,13.15-24.62,2.03-.45,2.93-1.22,3.55-3.26,6.19-20.3,28.9-29.27,47.3-18.68,1.86,1.07,3.09,1.24,5.04,.09,8.69-5.12,19.56-2.36,24.81,6.07,5.3,8.51,3.03,19.32-5.23,25.1-1.34,.94-2.5,1.1-4.11,.57-24.3-4.9-47.87,2.44-61.24,23.98-.83,1.5-1.83,2.13-3.43,2.34-8.7,1.17-16.69-3.46-19.85-11.59Z"/><path class="cls-8" d="M231.22,73.88c-1.12-2.87-2.24-5.53-3.18-8.26-.23-.67-.04-1.63,.29-2.3,12.94-20.91,38.39-29.44,62.05-24.43,.81,.31,1.65,1.11,2.01,1.9,1.13,2.48,2.04,5.07,3.12,7.83-27.86-4.22-46.94,1.26-64.29,25.27Z"/></g></g><text class="cls-1" transform="translate(0 123.91)"><tspan x="0" y="0">Quack</tspan><tspan class="cls-5" x="180.67" y="0">	</tspan><tspan class="cls-3" x="238.88" y="0" xml:space="preserve">		</tspan><tspan x="358.33" y="0" xml:space="preserve">  Snack</tspan></text></g></g></svg>